<svg xmlns="http://www.w3.org/2000/svg" version="1.1" xmlns:xlink="http://www.w3.org/1999/xlink" xmlns:svgjs="http://svgjs.com/svgjs" width="2000.000000pt" height="2000.000000pt"><svg version="1.0" xmlns="http://www.w3.org/2000/svg" width="2000.000000pt" height="2000.000000pt" viewBox="0 0 2000.000000 2000.000000" preserveAspectRatio="xMidYMid meet">

<g transform="translate(0.000000,2000.000000) scale(0.100000,-0.100000)" fill="#000000" stroke="none">
<path d="M9610 19979 c-1471 -56 -2986 -479 -4320 -1207 -1373 -749 -2556
-1792 -3449 -3041 -1522 -2126 -2124 -4713 -1715 -7371 34 -219 113 -612 168
-835 267 -1075 720 -2095 1333 -3004 257 -380 509 -703 824 -1056 142 -159
491 -517 535 -549 l26 -19 637 636 636 636 29 -67 c62 -141 259 -527 349 -683
361 -630 791 -1171 1312 -1653 907 -837 2081 -1430 3319 -1676 457 -91 770
-107 1328 -70 2121 143 4178 987 5843 2399 308 262 718 658 972 941 1284 1430
2107 3119 2423 4975 96 563 134 1044 134 1675 0 529 -20 863 -80 1330 -236
1849 -970 3532 -2153 4939 -209 248 -517 579 -678 727 l-95 87 -628 -628
c-345 -345 -630 -623 -633 -619 -2 5 -59 117 -125 249 -510 1014 -1126 1796
-1947 2470 -705 579 -1583 1043 -2402 1269 -293 81 -644 129 -1073 146 -257
10 -285 10 -570 -1z m6203 -4361 c79 -167 226 -575 316 -876 245 -819 387
-1681 442 -2677 16 -290 17 -1034 1 -1240 -58 -749 -168 -1308 -385 -1950
-527 -1561 -1621 -2862 -2977 -3540 -834 -417 -1696 -569 -2490 -439 -313 51
-666 167 -945 309 -592 302 -1170 778 -1595 1315 -227 288 -381 528 -551 866
l-117 231 -1644 -1644 -1643 -1643 -14 32 c-7 18 -18 41 -23 52 -22 43 -115
295 -173 471 -247 744 -406 1538 -485 2415 -29 327 -38 490 -51 912 -25 785
29 1466 167 2143 180 876 502 1675 951 2360 719 1096 1721 1854 2878 2179 197
55 449 103 695 133 203 25 706 24 905 0 526 -65 864 -164 1209 -354 431 -236
761 -486 1127 -852 409 -410 683 -787 939 -1298 l96 -192 1670 1670 c918 918
1670 1669 1671 1669 1 0 13 -24 26 -52z"></path>
</g>
</svg><style>@media (prefers-color-scheme: light) { :root { filter: none; } }
</style></svg>