<?xml version="1.0" standalone="no"?>
<!DOCTYPE svg PUBLIC "-//W3C//DTD SVG 20010904//EN"
 "http://www.w3.org/TR/2001/REC-SVG-20010904/DTD/svg10.dtd">
<svg version="1.0" xmlns="http://www.w3.org/2000/svg"
 width="700.000000pt" height="700.000000pt" viewBox="0 0 700.000000 700.000000"
 preserveAspectRatio="xMidYMid meet">
<metadata>
Created by potrace 1.14, written by Peter Selinger 2001-2017
</metadata>
<g transform="translate(0.000000,700.000000) scale(0.100000,-0.100000)"
fill="#000000" stroke="none">
<path d="M3310 6989 c-814 -44 -1632 -406 -2233 -988 -426 -412 -725 -884
-901 -1417 -76 -233 -129 -477 -157 -724 -20 -172 -17 -601 5 -780 94 -773
408 -1436 935 -1972 47 -49 90 -88 96 -88 5 0 108 98 227 217 120 119 219 215
220 213 2 -3 32 -63 68 -135 142 -284 345 -546 575 -743 324 -277 710 -462
1150 -549 118 -23 416 -23 600 1 966 125 1824 623 2413 1402 488 647 734 1462
684 2276 -6 106 -21 256 -32 333 -105 709 -416 1336 -919 1855 l-91 94 -218
-217 c-121 -119 -221 -217 -225 -217 -3 0 -38 62 -77 138 -281 542 -733 961
-1267 1176 -198 79 -332 111 -513 121 -52 3 -117 7 -145 9 -27 1 -115 -1 -195
-5z m2236 -1546 c102 -243 193 -618 236 -978 21 -175 18 -750 -5 -895 -146
-933 -745 -1653 -1532 -1838 -97 -23 -132 -26 -290 -26 -241 -1 -351 25 -555
130 -268 139 -555 420 -689 676 -24 45 -53 98 -64 117 l-20 33 -573 -573
c-315 -315 -575 -571 -577 -569 -12 13 -72 185 -106 304 -111 379 -157 759
-148 1233 5 306 20 438 77 669 136 553 451 1018 871 1287 166 106 409 201 594
232 202 35 482 19 662 -36 324 -100 700 -444 888 -811 22 -43 42 -78 45 -78 3
0 266 261 585 580 319 319 581 580 582 580 2 0 10 -17 19 -37z"/>
</g>
</svg>
